<svg width="26" height="18" viewBox="0 0 26 18" fill="none" xmlns="http://www.w3.org/2000/svg">
<path d="M8.50034 10.3333V10.8333H9.00034V10.3333H8.50034ZM14.5755 8.29897L14.1821 8.6076L14.5079 9.02282L14.9049 8.67512L14.5755 8.29897ZM20.1937 10.3825L19.6975 10.4439L19.7431 10.8129L20.1097 10.8754L20.1937 10.3825ZM5.82186 7.36875C6.03437 7.54508 6.34959 7.51575 6.52592 7.30324C6.70225 7.09072 6.67292 6.7755 6.4604 6.59917L5.82186 7.36875ZM4.02399 4.57761C3.81148 4.40128 3.49626 4.43061 3.31993 4.64313C3.1436 4.85564 3.17293 5.17086 3.38545 5.34719L4.02399 4.57761ZM4.08202 12.1165C4.35613 12.1499 4.60545 11.9548 4.6389 11.6807C4.67234 11.4066 4.47724 11.1573 4.20313 11.1239L4.08202 12.1165ZM1.06056 10.7404C0.786446 10.707 0.537125 10.9021 0.503681 11.1762C0.470237 11.4503 0.665335 11.6996 0.939444 11.7331L1.06056 10.7404ZM25.0817 11.2165C25.3542 11.1714 25.5384 10.914 25.4933 10.6415C25.4481 10.3691 25.1907 10.1849 24.9183 10.23L25.0817 11.2165ZM19.3457 6.32352C19.1409 6.50878 19.1251 6.82497 19.3103 7.02975C19.4956 7.23452 19.8118 7.25035 20.0166 7.06509L19.3457 6.32352ZM22.3643 4.94118C22.5691 4.75592 22.5849 4.43974 22.3996 4.23496C22.2144 4.03018 21.8982 4.01435 21.6934 4.19961L22.3643 4.94118ZM14.894 3.92545C14.8219 4.19201 14.9795 4.46656 15.2461 4.53867C15.5126 4.61079 15.7872 4.45316 15.8593 4.1866L14.894 3.92545ZM16.6861 1.13057C16.7582 0.864013 16.6005 0.589464 16.334 0.51735C16.0674 0.445237 15.7929 0.602867 15.7208 0.869427L16.6861 1.13057ZM19.1656 9.13184C19.3069 9.36912 19.6137 9.44695 19.851 9.3057C20.0883 9.16444 20.1661 8.85757 20.0249 8.6203L19.1656 9.13184ZM9.85251 4.3152C9.93596 4.57843 10.217 4.72418 10.4802 4.64073C10.7435 4.55728 10.8892 4.27624 10.8058 4.01301L9.85251 4.3152ZM9.84906 0.995141C9.76561 0.731909 9.48457 0.586164 9.22134 0.669612C8.95811 0.753059 8.81237 1.0341 8.89581 1.29733L9.84906 0.995141ZM8.38972 16.5C6.78583 16.5 5.5 15.2236 5.5 13.6667H4.5C4.5 15.7916 6.24943 17.5 8.38972 17.5V16.5ZM9.00034 10.3333C9.00034 8.7764 10.2862 7.5 11.8901 7.5V6.5C9.74977 6.5 8.00034 8.20837 8.00034 10.3333H9.00034ZM22.5 13.6667C22.5 15.2236 21.2142 16.5 19.6103 16.5V17.5C21.7506 17.5 23.5 15.7916 23.5 13.6667H22.5ZM8.38972 17.5H19.6103V16.5H8.38972V17.5ZM14.9049 8.67512C15.4154 8.22802 16.0887 7.95576 16.829 7.95576V6.95576C15.8391 6.95576 14.9334 7.32089 14.2461 7.92282L14.9049 8.67512ZM11.8901 7.5C12.8251 7.5 13.6542 7.93467 14.1821 8.6076L14.9689 7.99034C14.2571 7.08316 13.1415 6.5 11.8901 6.5V7.5ZM16.829 7.95576C18.3121 7.95576 19.525 9.04862 19.6975 10.4439L20.69 10.3212C20.4546 8.41808 18.8101 6.95576 16.829 6.95576V7.95576ZM6.4604 6.59917L4.02399 4.57761L3.38545 5.34719L5.82186 7.36875L6.4604 6.59917ZM4.20313 11.1239L1.06056 10.7404L0.939444 11.7331L4.08202 12.1165L4.20313 11.1239ZM20.0166 7.06509L22.3643 4.94118L21.6934 4.19961L19.3457 6.32352L20.0166 7.06509ZM15.8593 4.1866L16.6861 1.13057L15.7208 0.869427L14.894 3.92545L15.8593 4.1866ZM13.0246 5.70689C15.6591 5.70689 17.9501 7.09007 19.1656 9.13184L20.0249 8.6203C18.6301 6.27741 16.0137 4.70689 13.0246 4.70689V5.70689ZM10.8058 4.01301L9.84906 0.995141L8.89581 1.29733L9.85251 4.3152L10.8058 4.01301ZM5.97304 12.0157C6.22888 8.50614 9.27316 5.70689 13.0246 5.70689V4.70689C8.77717 4.70689 5.27163 7.8832 4.97568 11.943L5.97304 12.0157ZM5.5 13.6667C5.5 13.1371 5.64694 12.6536 5.90038 12.2411L5.04834 11.7176C4.70091 12.2831 4.5 12.9472 4.5 13.6667H5.5ZM5.90038 12.2411C6.42104 11.3936 7.40091 10.8333 8.50034 10.8333V9.83334C7.06479 9.83334 5.7568 10.5645 5.04834 11.7176L5.90038 12.2411ZM22.0079 11.7258L25.0817 11.2165L24.9183 10.23L21.8444 10.7393L22.0079 11.7258ZM20.1097 10.8754C20.6761 10.972 21.1856 11.2305 21.5875 11.6004L22.2647 10.8647C21.724 10.3669 21.0387 10.0195 20.2778 9.88965L20.1097 10.8754ZM21.5875 11.6004C22.1509 12.119 22.5 12.8533 22.5 13.6667H23.5C23.5 12.5593 23.0231 11.5626 22.2647 10.8647L21.5875 11.6004Z" fill="white"/>
</svg>
