<svg width="26" height="24" viewBox="0 0 26 24" fill="none" xmlns="http://www.w3.org/2000/svg">
<path d="M1 12C1 18.0751 5.90087 23 11.9464 23C13.2109 23 14.4253 22.7845 15.5553 22.3882C11.2829 20.8895 8.21778 16.8044 8.21778 12C8.21778 7.19556 11.2829 3.11052 15.5553 1.61183C14.4253 1.21546 13.2109 1 11.9464 1C5.90087 1 1 5.92487 1 12Z" stroke="white" stroke-linejoin="round"/>
<path d="M17.7752 12.3078L18.6333 14.9618H21.4104L19.1637 16.6021L20.0218 19.2562L17.7752 17.6159L15.5285 19.2562L16.3866 16.6021L14.14 14.9618H16.917L17.7752 12.3078Z" stroke="white" stroke-linejoin="round"/>
<path d="M22.9223 8.40835L23.4128 9.92527H25L23.7159 10.8628L24.2064 12.3797L22.9223 11.4422L21.6382 12.3797L22.1287 10.8628L20.8446 9.92527H22.4318L22.9223 8.40835Z" stroke="white" stroke-linejoin="round"/>
<path d="M15.5554 6.03862L16.1537 7.88882H18.0896L16.5234 9.0323L17.1216 10.8825L15.5554 9.73901L13.9892 10.8825L14.5875 9.0323L13.0213 7.88882H14.9572L15.5554 6.03862Z" stroke="white" stroke-linejoin="round"/>
</svg>
