<svg width="20" height="26" viewBox="0 0 20 26" fill="none" xmlns="http://www.w3.org/2000/svg">
<path d="M10 19.5847L11.5633 22.2924C12.2581 23.4958 11.3896 25 10 25C8.61047 25 7.742 23.4958 8.43678 22.2924L10 19.5847Z" stroke="white"/>
<path d="M5.49998 14L7.06323 16.7076C7.75801 17.911 6.88954 19.4153 5.49998 19.4153C4.11042 19.4153 3.24195 17.911 3.93673 16.7076L5.49998 14Z" stroke="white"/>
<path d="M13.766 13L15.3292 15.7076C16.024 16.911 15.1555 18.4153 13.766 18.4153C12.3764 18.4153 11.5079 16.911 12.2027 15.7076L13.766 13Z" stroke="white"/>
<path d="M1 7.66667C1 9.50762 2.51763 11 4.38972 11H15.6103C17.4824 11 19 9.50762 19 7.66667C19 6.02136 17.7878 4.65448 16.1937 4.38253C15.9898 2.73334 14.5611 1.45576 12.829 1.45576C11.9639 1.45576 11.1744 1.77446 10.5755 2.29897C9.95564 1.50892 8.98329 1 7.89006 1C6.01797 1 4.50034 2.49238 4.50034 4.33333C2.61321 4.33333 1 5.76467 1 7.66667Z" stroke="white"/>
</svg>
