<svg width="20" height="26" viewBox="0 0 20 26" fill="none" xmlns="http://www.w3.org/2000/svg">
<path d="M1 7.69126C1 9.53221 2.51763 11.0246 4.38972 11.0246H15.6103C17.4824 11.0246 19 9.53221 19 7.69126C19 6.04596 17.7878 4.67907 16.1937 4.40712C15.9898 2.75794 14.5611 1.48036 12.829 1.48036C11.9639 1.48036 11.1744 1.79905 10.5755 2.32357C9.95564 1.53351 8.98329 1.0246 7.89007 1.0246C6.01797 1.0246 4.50034 2.51698 4.50034 4.35793C2.61321 4.35793 1 5.78927 1 7.69126Z" stroke="white"/>
<path d="M7.49995 13.5493C7.49995 14.088 7.06325 14.5247 6.52456 14.5247C5.98586 14.5247 5.54916 14.088 5.54916 13.5493C5.54916 13.0106 5.98586 12.5739 6.52456 12.5739C7.06325 12.5739 7.49995 13.0106 7.49995 13.5493Z" stroke="white"/>
<path d="M11.0001 18.5C11.0001 19.0387 10.5634 19.4754 10.0247 19.4754C9.48596 19.4754 9.04926 19.0387 9.04926 18.5C9.04926 17.9613 9.48596 17.5246 10.0247 17.5246C10.5634 17.5246 11.0001 17.9613 11.0001 18.5Z" stroke="white"/>
<path d="M14.5 13.5292C14.5 14.0679 14.0633 14.5046 13.5246 14.5046C12.9859 14.5046 12.5492 14.0679 12.5492 13.5292C12.5492 12.9905 12.9859 12.5538 13.5246 12.5538C14.0633 12.5538 14.5 12.9905 14.5 13.5292Z" stroke="white"/>
<path d="M16.9508 18.5C16.9508 19.0387 16.5141 19.4754 15.9754 19.4754C15.4367 19.4754 15 19.0387 15 18.5C15 17.9613 15.4367 17.5246 15.9754 17.5246C16.5141 17.5246 16.9508 17.9613 16.9508 18.5Z" stroke="white"/>
<path d="M5.04913 18.5C5.04913 19.0387 4.61243 19.4754 4.07373 19.4754C3.53503 19.4754 3.09833 19.0387 3.09833 18.5C3.09833 17.9613 3.53503 17.5246 4.07373 17.5246C4.61243 17.5246 5.04913 17.9613 5.04913 18.5Z" stroke="white"/>
<path d="M7.4754 24C7.4754 24.5387 7.0387 24.9754 6.5 24.9754C5.9613 24.9754 5.5246 24.5387 5.5246 24C5.5246 23.4613 5.9613 23.0246 6.5 23.0246C7.0387 23.0246 7.4754 23.4613 7.4754 24Z" stroke="white"/>
<path d="M14.5 24C14.5 24.5387 14.0633 24.9754 13.5246 24.9754C12.9859 24.9754 12.5492 24.5387 12.5492 24C12.5492 23.4613 12.9859 23.0246 13.5246 23.0246C14.0633 23.0246 14.5 23.4613 14.5 24Z" stroke="white"/>
</svg>
