<svg width="24" height="26" viewBox="0 0 24 26" fill="none" xmlns="http://www.w3.org/2000/svg">
<path d="M7.1597 6.38858L4.89251 3.29171M4.1684 10.4747L0.5 9.29179M4.1684 15.5253L0.5 16.7082M7.1597 19.6114L4.89251 22.7083M12 21.1721V25M16.8403 19.6114L19.1075 22.7083M19.8316 15.5253L23.5 16.7082M19.8316 10.4747L23.5 9.29179M16.8403 6.38858L19.1075 3.29171M12 4.82795V1M17.608 13C17.608 16.0737 15.0972 18.5655 12 18.5655C8.90281 18.5655 6.39205 16.0737 6.39205 13C6.39205 9.92628 8.90281 7.43455 12 7.43455C15.0972 7.43455 17.608 9.92628 17.608 13Z" stroke="white" stroke-linecap="round"/>
</svg>
