<svg width="20" height="26" viewBox="0 0 20 26" fill="none" xmlns="http://www.w3.org/2000/svg">
<path d="M8.79612 12.8807H15.726M9.66236 14.6131H15.726M9.66236 16.3456H14.8598M9.45849 18.0781H13.7897M8.79612 19.8106H12.2611M7.72601 21.543H10.3247M8.26107 23.2755H9.99354M9.99354 25.008H10.8598M5.11678 12.55L4.15918 14.9438H6.4774L5.11678 18.6479M4.38972 10.992C2.51763 10.992 1 9.49962 1 7.65867C1 5.75668 2.61321 4.32534 4.50034 4.32534C4.50034 2.48439 6.01797 0.992004 7.89007 0.992004C8.98329 0.992004 9.95564 1.50092 10.5755 2.29098C11.1744 1.76646 11.9639 1.44776 12.829 1.44776C14.5611 1.44776 15.9898 2.72535 16.1937 4.37453C17.7878 4.64648 19 6.01337 19 7.65867C19 9.49962 17.4824 10.992 15.6103 10.992H4.38972Z" stroke="white" stroke-linecap="round"/>
</svg>
