<svg width="20" height="26" viewBox="0 0 20 26" fill="none" xmlns="http://www.w3.org/2000/svg">
<path d="M13.9576 13L13 15.3938H15.3182L13.9576 19.0979M10.3078 19.5847L11.8711 22.2924C12.5659 23.4958 11.6974 25 10.3078 25C8.91827 25 8.0498 23.4958 8.74458 22.2924L10.3078 19.5847ZM5.80778 14L7.37103 16.7076C8.06581 17.911 7.19734 19.4153 5.80778 19.4153C4.41822 19.4153 3.54975 17.911 4.24453 16.7076L5.80778 14ZM4.38972 11C2.51763 11 1 9.50762 1 7.66667C1 5.76467 2.61321 4.33333 4.50034 4.33333C4.50034 2.49238 6.01797 1 7.89006 1C8.98329 1 9.95564 1.50892 10.5755 2.29897C11.1744 1.77446 11.9639 1.45576 12.829 1.45576C14.5611 1.45576 15.9898 2.73334 16.1937 4.38253C17.7878 4.65448 19 6.02136 19 7.66667C19 9.50762 17.4824 11 15.6103 11H4.38972Z" stroke="white" stroke-linecap="round"/>
</svg>
