<svg width="20" height="26" viewBox="0 0 20 26" fill="none" xmlns="http://www.w3.org/2000/svg">
<path d="M16 19.5003H4.71232M16 17.2985H5.60901C4.72038 17.2985 4 16.5601 4 15.6493C4 14.7384 4.72038 14 5.60901 14C6.21975 14 6.75101 14.3488 7.02356 14.8626M16 21.7015H10.9724C10.0837 21.7015 9.36336 22.4399 9.36336 23.3507C9.36336 24.2616 10.0837 25 10.9724 25C11.5831 25 12.1144 24.6512 12.3869 24.1374M4.38972 11C2.51763 11 1 9.50762 1 7.66667C1 5.76467 2.61321 4.33333 4.50034 4.33333C4.50034 2.49238 6.01797 1 7.89007 1C8.98329 1 9.95564 1.50892 10.5755 2.29897C11.1744 1.77446 11.9639 1.45576 12.829 1.45576C14.5611 1.45576 15.9898 2.73334 16.1937 4.38253C17.7878 4.65448 19 6.02136 19 7.66667C19 9.50762 17.4824 11 15.6103 11H4.38972Z" stroke="white" stroke-linecap="round"/>
</svg>
