<svg width="18" height="24" viewBox="0 0 18 24" fill="none" xmlns="http://www.w3.org/2000/svg">
<path d="M0.996425 4.93559C0.75556 4.80054 0.45082 4.88632 0.31577 5.12719C0.180721 5.36805 0.266502 5.67279 0.507367 5.80784L0.996425 4.93559ZM4.07944 7.26761L4.20548 7.75146C4.33501 7.71772 4.4456 7.63345 4.51251 7.51751C4.57941 7.40158 4.59703 7.26366 4.56143 7.13463L4.07944 7.26761ZM0.373989 7.7162C0.106764 7.78581 -0.0534316 8.05887 0.0161808 8.3261C0.0857931 8.59332 0.358853 8.75352 0.626077 8.6839L0.373989 7.7162ZM3.60252 3.65925C3.52908 3.39305 3.25374 3.2368 2.98755 3.31024C2.72135 3.38369 2.5651 3.65902 2.63854 3.92522L3.60252 3.65925ZM0.479684 13.7253C0.238819 13.8603 0.153038 14.1651 0.288087 14.4059C0.423137 14.6468 0.727876 14.7326 0.968742 14.5975L0.479684 13.7253ZM4.07868 12.3108L4.56071 12.4436C4.59627 12.3146 4.57861 12.1767 4.51168 12.0608C4.44475 11.9448 4.33413 11.8606 4.20459 11.8269L4.07868 12.3108ZM2.63847 15.6545C2.5651 15.9207 2.72143 16.196 2.98765 16.2694C3.25386 16.3428 3.52915 16.1865 3.60253 15.9202L2.63847 15.6545ZM0.625914 10.8957C0.358671 10.8261 0.0856546 10.9864 0.0161141 11.2536C-0.0534264 11.5209 0.106843 11.7939 0.374086 11.8634L0.625914 10.8957ZM8.04886 18.5797C8.04886 18.8558 8.27272 19.0797 8.54886 19.0797C8.82501 19.0797 9.04886 18.8558 9.04886 18.5797H8.04886ZM8.57579 14.8332L8.92403 14.4744C8.73001 14.2861 8.42142 14.2861 8.22745 14.4745L8.57579 14.8332ZM10.8488 17.7361C11.0469 17.9285 11.3635 17.9237 11.5558 17.7256C11.7481 17.5274 11.7434 17.2109 11.5453 17.0186L10.8488 17.7361ZM5.60768 17.0186C5.40958 17.211 5.40494 17.5276 5.59732 17.7257C5.7897 17.9238 6.10625 17.9284 6.30435 17.736L5.60768 17.0186ZM9.10423 1C9.10423 0.723858 8.88037 0.5 8.60423 0.5C8.32809 0.5 8.10423 0.723858 8.10423 1H9.10423ZM8.5773 4.7465L8.22906 5.10529C8.42309 5.2936 8.73167 5.29356 8.92564 5.10519L8.5773 4.7465ZM6.30432 1.84356C6.10617 1.65123 5.78962 1.65595 5.59729 1.8541C5.40497 2.05226 5.40969 2.36881 5.60784 2.56113L6.30432 1.84356ZM11.5454 2.56104C11.7435 2.36866 11.7482 2.05211 11.5558 1.85401C11.3634 1.65591 11.0468 1.65127 10.8487 1.84365L11.5454 2.56104ZM16.2838 17.1917L16.5987 16.8033L16.2838 17.1917ZM11.9504 17.1916L11.6355 16.8032H11.6355L11.9504 17.1916ZM14.5179 10.98C14.2418 10.98 14.0179 11.2039 14.0179 11.48C14.0179 11.7561 14.2418 11.98 14.5179 11.98V10.98ZM14.5179 13.2564C14.2418 13.2564 14.0179 13.4803 14.0179 13.7564C14.0179 14.0326 14.2418 14.2564 14.5179 14.2564V13.2564ZM14.5179 15.69C14.2418 15.69 14.0179 15.9138 14.0179 16.19C14.0179 16.4661 14.2418 16.69 14.5179 16.69V15.69ZM4.31411 6.79577L0.996425 4.93559L0.507367 5.80784L3.82505 7.66802L4.31411 6.79577ZM3.95339 6.78376L0.373989 7.7162L0.626077 8.6839L4.20548 7.75146L3.95339 6.78376ZM4.56143 7.13463L4.55157 7.09891L3.58759 7.36488L3.59745 7.4006L4.56143 7.13463ZM4.55157 7.0989L3.60252 3.65925L2.63854 3.92522L3.58759 7.36488L4.55157 7.0989ZM3.79737 11.8651L0.479684 13.7253L0.968742 14.5975L4.28643 12.7373L3.79737 11.8651ZM3.59665 12.1779L2.63847 15.6545L3.60253 15.9202L4.56071 12.4436L3.59665 12.1779ZM4.20459 11.8269L4.16781 11.8173L3.91599 12.7851L3.95277 12.7947L4.20459 11.8269ZM4.16781 11.8173L0.625914 10.8957L0.374086 11.8634L3.91598 12.7851L4.16781 11.8173ZM8.04886 14.8593L8.04886 18.5797H9.04886L9.04886 14.8593L8.04886 14.8593ZM8.22755 15.192L10.8488 17.7361L11.5453 17.0186L8.92403 14.4744L8.22755 15.192ZM8.22745 14.4745L8.20053 14.5006L8.8972 15.218L8.92413 15.1919L8.22745 14.4745ZM8.20053 14.5006L5.60768 17.0186L6.30435 17.736L8.8972 15.218L8.20053 14.5006ZM9.10423 4.72035V1H8.10423V4.72035H9.10423ZM8.92554 4.38771L6.30432 1.84356L5.60784 2.56113L8.22906 5.10529L8.92554 4.38771ZM8.92564 5.10519L8.95257 5.07904L8.25589 4.36166L8.22897 4.3878L8.92564 5.10519ZM8.95257 5.07904L11.5454 2.56104L10.8487 1.84365L8.25589 4.36166L8.95257 5.07904ZM8.30434 10.2416L8.33187 10.257L8.82092 9.38476L8.79339 9.36933L8.30434 10.2416ZM8.33188 10.257L8.35971 10.2726L8.84875 9.40036L8.82092 9.38476L8.33188 10.257ZM8.04887 9.74336V9.77423H9.04887V9.74336H8.04887ZM8.04887 9.77423V9.80545H9.04887V9.77423H8.04887ZM8.7934 9.30723L4.31411 6.79577L3.82505 7.66802L8.30434 10.1795L8.7934 9.30723ZM8.84875 9.33827L8.82092 9.32267L8.33188 10.1949L8.35971 10.2105L8.84875 9.33827ZM8.82092 9.32267L8.79339 9.30723L8.30434 10.1795L8.33187 10.1949L8.82092 9.32267ZM9.10423 9.83649V9.80529H8.10423V9.83649H9.10423ZM9.10423 9.80529V9.7744H8.10423V9.80529H9.10423ZM9.10423 9.7744V9.74319H8.10423V9.7744H9.10423ZM9.10423 9.74319L9.10423 4.72035L8.10423 4.72035L8.10423 9.74319H9.10423ZM8.35969 9.30707L8.33186 9.32267L8.82093 10.1949L8.84876 10.1793L8.35969 9.30707ZM8.33187 9.32267L8.30434 9.33811L8.79339 10.2104L8.82092 10.1949L8.33187 9.32267ZM8.30434 9.33811L3.79737 11.8651L4.28643 12.7373L8.79339 10.2104L8.30434 9.33811ZM8.04887 9.80545V9.83633H9.04887V9.80545H8.04887ZM8.04887 9.83633L8.04886 14.8593L9.04886 14.8593L9.04887 9.83633H8.04887ZM8.79338 10.2725L8.82091 10.257L8.33188 9.38476L8.30435 9.40019L8.79338 10.2725ZM8.82093 10.257L8.84876 10.2414L8.35969 9.36916L8.33186 9.38477L8.82093 10.257ZM17 19.7147C17 21.2393 15.7232 22.5 14.1171 22.5V23.5C16.2476 23.5 18 21.819 18 19.7147H17ZM14.1171 22.5C12.511 22.5 11.2341 21.2393 11.2341 19.7147H10.2341C10.2341 21.819 11.9865 23.5 14.1171 23.5V22.5ZM15.9689 17.58C16.6026 18.0938 17 18.861 17 19.7147H18C18 18.5408 17.4516 17.4948 16.5987 16.8033L15.9689 17.58ZM11.2341 19.7147C11.2341 18.861 11.6316 18.0937 12.2653 17.58L11.6355 16.8032C10.7826 17.4947 10.2341 18.5407 10.2341 19.7147H11.2341ZM12.2653 17.58C12.3385 17.5206 12.4104 17.4768 12.4891 17.4334C12.5516 17.3988 12.6759 17.3357 12.7697 17.2722C12.8818 17.1963 13.0075 17.0863 13.0964 16.9143C13.1828 16.7471 13.2118 16.5653 13.2118 16.3809H12.2118C12.2118 16.4635 12.1984 16.4738 12.208 16.4552C12.2201 16.4317 12.2346 16.4269 12.2091 16.4441C12.1654 16.4737 12.1257 16.4917 12.0059 16.5579C11.9023 16.6151 11.7734 16.6914 11.6355 16.8032L12.2653 17.58ZM14.1172 2.16936C14.4442 2.16936 14.6829 2.24099 14.8248 2.34002C14.9435 2.42279 15.0225 2.54042 15.0225 2.75582H16.0225C16.0225 2.21748 15.7869 1.79188 15.3969 1.51984C15.0303 1.26409 14.5663 1.16936 14.1172 1.16936V2.16936ZM16.5987 16.8033C16.4609 16.6915 16.332 16.6151 16.2284 16.558C16.1086 16.4918 16.0689 16.4738 16.0251 16.4442C15.9997 16.427 16.0142 16.4319 16.0263 16.4553C16.0359 16.4739 16.0225 16.4637 16.0225 16.381H15.0225C15.0225 16.5654 15.0515 16.7472 15.1379 16.9144C15.2268 17.0865 15.3525 17.1964 15.4646 17.2723C15.5584 17.3358 15.6826 17.3989 15.7452 17.4335C15.8239 17.4769 15.8957 17.5207 15.9689 17.58L16.5987 16.8033ZM14.1172 1.16936C13.668 1.16936 13.204 1.26409 12.8374 1.51984C12.4474 1.79188 12.2118 2.21747 12.2118 2.75582H13.2118C13.2118 2.54042 13.2908 2.42278 13.4095 2.34002C13.5514 2.24099 13.7902 2.16936 14.1172 2.16936V1.16936ZM13.2118 7.50224V2.75582H12.2118V7.50224H13.2118ZM8.84876 10.2414L12.9563 7.93836L12.4673 7.06611L8.3597 9.36916L8.84876 10.2414ZM13.2118 16.3809V12.1395H12.2118V16.3809H13.2118ZM13.2118 12.1395V7.50224H12.2118V12.1395H13.2118ZM8.3597 10.2726L12.4673 12.5757L12.9563 11.7034L8.84876 9.40037L8.3597 10.2726ZM15.5225 10.98H14.5179V11.98H15.5225V10.98ZM15.0225 2.75582V11.48H16.0225V2.75582H15.0225ZM15.0225 11.48V13.7564H16.0225V11.48H15.0225ZM15.5225 13.2564H14.5179V14.2564H15.5225V13.2564ZM15.0225 13.7564V16.19H16.0225V13.7564H15.0225ZM15.0225 16.19V16.381H16.0225V16.19H15.0225ZM15.5225 15.69H14.5179V16.69H15.5225V15.69Z" fill="white"/>
</svg>
