<svg width="20" height="16" viewBox="0 0 20 16" fill="none" xmlns="http://www.w3.org/2000/svg">
<path opacity="0.3" d="M10.2573 6.48193C10.6089 6.48193 10.9019 6.16699 10.9019 5.78613V3.18604L10.7993 2.03613L11.3193 2.67334L12.1616 3.54492C12.2861 3.67676 12.4399 3.75732 12.6157 3.75732C12.9453 3.75732 13.1797 3.52295 13.1797 3.20801C13.1797 3.0249 13.1064 2.88574 12.96 2.75391L10.7041 0.637207C10.5356 0.483398 10.4111 0.432129 10.2573 0.432129C10.0962 0.432129 9.97168 0.483398 9.80322 0.637207L7.54736 2.75391C7.40088 2.88574 7.32764 3.0249 7.32764 3.20801C7.32764 3.52295 7.56201 3.75732 7.8916 3.75732C8.06738 3.75732 8.22119 3.67676 8.3457 3.54492L9.24658 2.61475L9.70801 2.03613L9.60547 3.18604V5.78613C9.60547 6.16699 9.89844 6.48193 10.2573 6.48193ZM14.0366 8.4375C14.293 8.68652 14.7104 8.68652 14.9961 8.40088L16.1973 7.19971C16.4829 6.91406 16.4756 6.50391 16.2266 6.24756C15.9775 5.99121 15.5601 5.99121 15.2744 6.27686L14.0732 7.47803C13.7876 7.76367 13.7803 8.18848 14.0366 8.4375ZM5.51123 8.40088C5.79688 8.68652 6.22168 8.69385 6.4707 8.4375C6.71973 8.18848 6.71973 7.76367 6.43408 7.47803L5.23291 6.27686C4.94727 5.99121 4.52979 5.99854 4.28076 6.24756C4.02441 6.49658 4.02441 6.91406 4.31006 7.19971L5.51123 8.40088ZM14.2271 12.2095C14.2271 10.0269 12.4326 8.2251 10.2573 8.2251C8.07471 8.2251 6.28027 10.0269 6.28027 12.2095C6.28027 12.6782 6.37549 13.1396 6.55127 13.5498H13.9561C14.1318 13.1396 14.2271 12.6782 14.2271 12.2095ZM2.50098 12.5903H4.2002C4.60303 12.5903 4.91064 12.2974 4.91064 11.9385C4.90332 11.5869 4.60303 11.2939 4.2002 11.2939H2.50098C2.10547 11.2939 1.80518 11.5869 1.80518 11.9385C1.80518 12.2974 2.10547 12.5903 2.50098 12.5903ZM16.3071 12.5903H18.0063C18.4092 12.5903 18.7021 12.2974 18.7021 11.9385C18.7021 11.5869 18.4092 11.2939 18.0063 11.2939H16.3071C15.9043 11.2939 15.5967 11.5869 15.5967 11.9385C15.604 12.2974 15.9116 12.5903 16.3071 12.5903ZM1.59277 15.8643H18.9146C19.3101 15.8643 19.6396 15.5493 19.6396 15.1758C19.6396 14.7949 19.3101 14.48 18.9146 14.48H1.59277C1.19727 14.48 0.867676 14.7949 0.867676 15.1758C0.867676 15.542 1.19727 15.8643 1.59277 15.8643Z" fill="white"/>
</svg>
